<svg xmlns="http://www.w3.org/2000/svg" width="34.695" height="48.228" viewBox="0 0 34.695 48.228">
  <defs>
    <style>
      .cls-1 {
        fill: #fff;
      }
    </style>
  </defs>
  <g id="icons" transform="translate(0 0.001)">
    <g id="Group_4228" data-name="Group 4228" transform="translate(0 -0.001)">
      <path id="Path_11153" data-name="Path 11153" class="cls-1" d="M17.964,9.352l11.565.165a54.677,54.677,0,0,0,4.265-5.579c.572-1.229.78-2.3-.8-2.577-1.414-.246-2.638,1.92-3.953,2S27.9.084,25.59,0C24.1-.053,24.03,3.281,22.474,3.2S21.08.9,19.193,1.233,16.9,3.04,15.831,2.874s-1.887-1.641-3.281-.9,5.414,7.381,5.414,7.381Z" transform="translate(-6.517 0.001)"/>
      <path id="Path_11154" data-name="Path 11154" class="cls-1" d="M29.589,31.966a44.443,44.443,0,0,0-6.771-6.6c-2.686,0-11.565.061-11.565.061a66.354,66.354,0,0,0-6.771,7.187A17.444,17.444,0,0,0,1.546,37.1,11.087,11.087,0,0,0,.87,38.826a17.349,17.349,0,1,0,28.719-6.861ZM18.175,49.058V50.8H16.5V49.176a6.91,6.91,0,0,1-2.9-.733l.511-2a6.043,6.043,0,0,0,2.837.752c.974,0,1.641-.374,1.641-1.059s-.548-1.059-1.811-1.485c-1.825-.615-3.073-1.47-3.073-3.125a3.156,3.156,0,0,1,2.884-3.04V36.864H18.26v1.5a6.231,6.231,0,0,1,2.478.563l-.5,1.929a5.642,5.642,0,0,0-2.459-.582c-1.111,0-1.47.478-1.47.955,0,.563.6.922,2.047,1.466,2.033.719,2.851,1.655,2.851,3.192a3.257,3.257,0,0,1-3.04,3.158Z" transform="translate(0 -13.374)"/>
    </g>
  </g>
</svg>
