<svg xmlns="http://www.w3.org/2000/svg" width="54.952" height="26" viewBox="0 0 54.952 26">
  <defs>
    <style>
      .cls-1 {
        fill: #fff;
      }
    </style>
  </defs>
  <g id="_Ńëîé_1" transform="translate(0 25.97) rotate(-90)">
    <path id="Path_11155" data-name="Path 11155" class="cls-1" d="M3.471,7.707a20.7,20.7,0,0,1,2.869.955,20.213,20.213,0,0,1,2.709,1.377l3.432-3.432a2.838,2.838,0,0,1,4.01,0l2.937,2.94a2.839,2.839,0,0,1,0,4.01L15.976,17a20.664,20.664,0,0,1,1.367,2.714,21.533,21.533,0,0,1,.94,2.873h4.849A2.844,2.844,0,0,1,25.97,25.43v4.156a2.844,2.844,0,0,1-2.838,2.838H18.259A20.559,20.559,0,0,1,17.3,35.3,20.637,20.637,0,0,1,15.928,38l3.433,3.433a2.843,2.843,0,0,1,0,4.014l-2.937,2.936a2.838,2.838,0,0,1-4.014,0L8.962,44.938A20.371,20.371,0,0,1,6.249,46.3a19.467,19.467,0,0,1-2.877.94V52.09a2.822,2.822,0,0,1-.791,1.961,2.847,2.847,0,0,1-1.92.874l-.691.028V37.311L.5,37.2A9.9,9.9,0,0,0,6.21,33.746a9.9,9.9,0,0,0,2.237-6.282A9.9,9.9,0,0,0,6.21,21.181,9.908,9.908,0,0,0,.5,17.718l-.527-.107V0H.632a2.826,2.826,0,0,1,2,.828A2.846,2.846,0,0,1,3.47,2.833V7.707Z"/>
  </g>
</svg>
