<svg id="Capa_1" xmlns="http://www.w3.org/2000/svg" width="42" height="45.352" viewBox="0 0 42 45.352">
  <defs>
    <style>
      .cls-1 {
        fill: #fff;
      }
    </style>
  </defs>
  <g id="Group_4229" data-name="Group 4229">
    <path id="Path_11156" data-name="Path 11156" class="cls-1" d="M16.5,19.011a21.038,21.038,0,0,1,2.585-.269h.162C22.1,14.11,24.04,8.159,24.767,0c0,0-26.416,6.84-24.612,21.811A10.834,10.834,0,0,0,.586,23.8C5.864,16.4,18.143,7.378,18.143,7.378,13.754,12.521,9.042,19.065,5.3,23.939c2.4-2.262,6-4.066,11.229-4.955Z" transform="translate(0.114)"/>
    <path id="Path_11157" data-name="Path 11157" class="cls-1" d="M.281,19.366a54.892,54.892,0,0,1,5.953-2.45C22.328,11.746,30.3,21.574,30.3,21.574s-8.763-6.786-24.245.916c-2.12,1.05-4.062,1.966-5.8,2.72a13.221,13.221,0,0,0,4.982,6.759c9.938,6.624,26.978-12.306,36.763-4.6,0,0-17.142-23.7-32.318-17.961a.16.16,0,0,0-.128.054,15.47,15.47,0,0,0-1.788.835,16.529,16.529,0,0,0-6.923,6.57A6.829,6.829,0,0,0,0,19.339S0,19.5.281,19.366Z" transform="translate(0 11.951)"/>
  </g>
</svg>
